<!DOCTYPE svg PUBLIC "-//W3C//DTD SVG 1.1//EN" "http://www.w3.org/Graphics/SVG/1.1/DTD/svg11.dtd">
<!-- Uploaded to: SVG Repo, www.svgrepo.com, Transformed by: SVG Repo Mixer Tools -->
<svg height="800px" width="800px" version="1.1" id="Capa_1" xmlns="http://www.w3.org/2000/svg" xmlns:xlink="http://www.w3.org/1999/xlink" viewBox="0 0 200.194 200.194" xml:space="preserve" fill="#000000">
<g id="SVGRepo_bgCarrier" stroke-width="0"/>
<g id="SVGRepo_tracerCarrier" stroke-linecap="round" stroke-linejoin="round"/>
<g id="SVGRepo_iconCarrier"> <g> <path style="fill:#EAE7DC;" d="M166.315,108.528c0,0,0.374-0.484,1.158-1.22c0.395-0.362,0.889-0.796,1.518-1.221 c0.628-0.423,1.382-0.867,2.329-1.132c0.473-0.125,0.997-0.204,1.557-0.163c0.558,0.039,1.142,0.229,1.655,0.555 c1.03,0.674,1.686,1.771,2.113,2.894c0.114,0.308,0.195,0.542,0.291,0.839c0.089,0.3,0.18,0.603,0.242,0.912 c0.128,0.62,0.233,1.285,0.067,2.055c-0.095,0.381-0.283,0.81-0.651,1.13c-0.365,0.323-0.837,0.464-1.239,0.489 c-0.813,0.039-1.483-0.194-2.104-0.473c-0.613-0.296-1.171-0.668-1.678-1.13c-0.251-0.236-0.492-0.492-0.705-0.811 c-0.105-0.162-0.204-0.341-0.28-0.559l-0.05-0.174l-0.012-0.043l-0.006-0.022l-0.013-0.103l-0.003-0.057l-0.012-0.224l-0.005-0.115 l0.019-0.165l0.048-0.329c0.033-0.238,0.105-0.356,0.159-0.539c0.122-0.331,0.283-0.623,0.456-0.901 c0.338-0.563,0.766-1.025,1.198-1.463c0.888-0.853,1.941-1.463,3.026-1.792c1.085-0.34,2.211-0.332,3.156-0.063 c0.238,0.081,0.46,0.12,0.693,0.232c0.198,0.094,0.391,0.173,0.581,0.274c0.198,0.129,0.395,0.24,0.569,0.378 c0.158,0.167,0.339,0.278,0.445,0.491c0.137,0.179,0.189,0.403,0.227,0.616c-0.007,0.214-0.025,0.422-0.112,0.585 c-0.141,0.344-0.365,0.571-0.562,0.765c-0.406,0.376-0.779,0.581-1.028,0.723c-0.253,0.137-0.393,0.197-0.393,0.197 s0.127-0.085,0.35-0.262c0.22-0.178,0.537-0.455,0.862-0.852c0.307-0.378,0.642-1.022,0.209-1.456 c-0.067-0.124-0.242-0.203-0.362-0.31c-0.146-0.088-0.315-0.155-0.474-0.239c-0.194-0.068-0.395-0.138-0.599-0.21 c-0.166-0.064-0.394-0.086-0.591-0.133c-0.824-0.146-1.74-0.063-2.631,0.273c-0.89,0.339-1.748,0.926-2.48,1.674 c-0.349,0.386-0.698,0.794-0.943,1.252c-0.251,0.45-0.435,0.944-0.442,1.273l0.015,0.225l0.004,0.056 c-0.005-0.035,0.012,0.099-0.011-0.075l0.003,0.005l0.004,0.011l0.014,0.042c0.023,0.065,0.069,0.151,0.13,0.241 c0.124,0.18,0.3,0.367,0.491,0.541c0.391,0.35,0.858,0.65,1.341,0.877c0.475,0.23,0.996,0.383,1.399,0.364 c0.399-0.042,0.518-0.15,0.645-0.548c0.094-0.403,0.061-0.945-0.03-1.47c-0.041-0.267-0.109-0.524-0.172-0.783 c-0.07-0.256-0.165-0.569-0.24-0.797c-0.345-1.001-0.825-1.91-1.53-2.44c-0.703-0.523-1.603-0.616-2.433-0.473 c-0.831,0.154-1.586,0.474-2.229,0.802c-0.642,0.336-1.184,0.677-1.62,0.975C166.777,108.127,166.315,108.528,166.315,108.528z"/> <path style="fill:#BBBCA0;" d="M39.705,95.679c-8.009,6.018,17.787,71.35,27.015,76.48l19.401-2.268l-6.124-50.42 c-0.192-1.032,0.414-2.008,1.41-2.464c2.007,13.91,5.038,45.006,9.501,49.852l0.045,0.006l0.42,2.262l7.565-1.1l7.565,1.1 l0.42-2.262l0.046-0.006c4.462-4.846,7.494-35.942,9.5-49.852c0.997,0.456,1.603,1.432,1.411,2.464l-6.124,50.42l15.596,2.268 c9.228-5.131,34.505-64.748,30.819-76.48H39.705z"/> <path style="fill:#5F6151;" d="M113.837,175.1c0,0-2.857-13.65,14.061-9.081c6.568,1.774,9.745,10.808,9.745,10.808 s-11.134,7.33-22.287,0.654"/> <path style="fill:#5F6151;" d="M80.42,175.1c0,0,2.857-13.65-14.062-9.081c-6.567,1.774-9.744,10.808-9.744,10.808 s11.133,7.33,22.287,0.654"/> <path style="fill:#DBDBB9;" d="M119.189,115.717v-5.097H77.725v7.308l-26.24-19.349c0,0,13.755,80.038,26.414,90.54h16.312v-54.007 c0-1.423,1.229-2.576,2.747-2.576l0,0c1.517,0,2.747,1.153,2.747,2.576v54.007h16.311c12.66-10.502,26.415-90.54,26.415-90.54 L119.189,115.717z"/> <path style="fill:#5F6151;" d="M94.925,194.983c0,0,2.87-13.71-14.122-9.12c-6.597,1.782-9.787,10.855-9.787,10.855 s11.182,7.362,22.384,0.657"/> <path style="fill:#5F6151;" d="M98.337,194.938c0,0-2.857-13.651,14.062-9.081c6.567,1.774,9.744,10.808,9.744,10.808 s-11.133,7.33-22.286,0.654"/> <path style="fill:#EAE7DC;" d="M170.731,106.482c0-2.983-0.744-5.79-2.044-8.259c1.273-1.304,2.064-3.081,2.064-5.047 c0-3.991-3.236-7.227-7.227-7.227c-2.566,0-4.805,1.346-6.087,3.36c-1.431-0.371-2.923-0.59-4.47-0.59 c-9.81,0-17.763,7.953-17.763,17.763c0,0.738,0.059,1.462,0.146,2.176c-10.977,0.852-45.592,8.4-57.902,8.4 c-3.7,0-7.199,0.826-10.357,2.271c-2.703-7.843-10.128-13.485-18.888-13.485c-0.717,0-1.424,0.042-2.12,0.115 c-0.913-4.695-4.238-8.529-8.634-10.155c0.273-0.832,0.458-1.704,0.458-2.627c0-4.677-3.791-8.467-8.467-8.467 c-4.677,0-8.468,3.79-8.468,8.467c0,2.198,0.858,4.182,2.232,5.687c-2.515,2.469-4.078,5.902-4.078,9.705 c0,6.103,4.017,11.267,9.553,12.992c-0.301,1.379-0.47,2.807-0.47,4.276c0,8.398,5.184,15.574,12.521,18.535 c-0.518,1.126-0.825,2.367-0.825,3.688c0,4.896,3.969,8.864,8.865,8.864c2.678,0,5.05-1.212,6.675-3.09 c4.213,7.835,12.483,13.164,22.003,13.164c1.773,0,3.501-0.191,5.17-0.542c0.691,1.357,1.599,2.633,2.733,3.769 c5.82,5.819,15.255,5.819,21.074,0c1.538-1.538,2.657-3.331,3.382-5.24c2.57,1.277,5.457,2.014,8.523,2.014 c8.343,0,15.422-5.329,18.072-12.762c0.247,0.008,0.487,0.037,0.735,0.037c12.46,0,22.571-9.977,22.828-22.374 c3.826-0.186,6.88-3.319,6.88-7.191c0-1.95-0.78-3.712-2.035-5.012C168.439,116.447,170.731,111.738,170.731,106.482z"/> <path style="fill:#DBDBB9;" d="M121.508,26.575c0,0,20.627-16.097,32.104-13.5c0,0,5.428,24.403-7.645,30.115L121.508,26.575z"/> <path style="fill:#5F6151;" d="M125.892,32.172c0,0,12.172-9.498,18.943-7.967c0,0,3.202,14.4-4.511,17.771L125.892,32.172z"/> <path style="fill:#DBDBB9;" d="M71.979,26.575c0,0-20.628-16.097-32.104-13.5c0,0-5.428,24.403,7.645,30.115L71.979,26.575z"/> <path style="fill:#5F6151;" d="M67.595,32.172c0,0-12.172-9.498-18.943-7.967c0,0-3.202,14.4,4.511,17.771L67.595,32.172z"/> <path style="fill:#5F6151;" d="M162.34,88.146c0,23.239-37.392,42.078-65.105,42.078c-26.394,0-65.105-18.839-65.105-42.078 c0-23.239,29.148-42.079,65.105-42.079S162.34,64.907,162.34,88.146z"/> <path style="fill:#DBDBB9;" d="M165.662,78.529c0,26.784-30.934,48.497-69.092,48.497c-38.158,0-69.092-21.713-69.092-48.497 S69,17.078,96.57,17.078C125.136,17.078,165.662,51.745,165.662,78.529z"/> <g> <ellipse style="fill:#5F6151;" cx="79.099" cy="50.159" rx="2.491" ry="6.477"/> <g style="opacity:0.53;"> <path style="fill:#5F6151;" d="M82.255,39.439c0,0-0.132-0.121-0.371-0.317c-0.237-0.198-0.595-0.46-1.04-0.733 c-0.446-0.272-0.99-0.549-1.603-0.729c-0.609-0.175-1.291-0.254-1.945-0.124c-0.329,0.049-0.647,0.158-0.95,0.289 c-0.298,0.143-0.589,0.296-0.848,0.484c-0.264,0.182-0.502,0.384-0.726,0.58c-0.212,0.209-0.42,0.4-0.592,0.6 c-0.353,0.388-0.64,0.729-0.819,0.979c-0.187,0.249-0.3,0.388-0.3,0.388s0.075-0.161,0.218-0.439 c0.07-0.141,0.161-0.307,0.276-0.492c0.111-0.189,0.237-0.402,0.403-0.616c0.151-0.225,0.344-0.448,0.551-0.683 c0.218-0.225,0.45-0.463,0.728-0.67c0.271-0.213,0.575-0.409,0.907-0.568c0.335-0.151,0.692-0.28,1.064-0.342 c0.371-0.071,0.752-0.072,1.119-0.04c0.37,0.026,0.72,0.132,1.049,0.238c0.655,0.233,1.203,0.576,1.629,0.911 c0.431,0.332,0.734,0.668,0.945,0.898C82.156,39.29,82.255,39.439,82.255,39.439z"/> </g> </g> <g> <ellipse style="fill:#5F6151;" cx="114.862" cy="50.159" rx="2.491" ry="6.477"/> <g style="opacity:0.53;"> <path style="fill:#5F6151;" d="M111.707,39.439c0,0,0.132-0.121,0.371-0.317c0.237-0.198,0.595-0.46,1.04-0.733 c0.446-0.272,0.99-0.549,1.602-0.729c0.61-0.175,1.292-0.254,1.946-0.124c0.329,0.049,0.647,0.158,0.95,0.289 c0.298,0.143,0.589,0.296,0.848,0.484c0.264,0.182,0.502,0.384,0.726,0.58c0.212,0.209,0.42,0.4,0.592,0.6 c0.354,0.388,0.64,0.729,0.819,0.979c0.187,0.249,0.3,0.388,0.3,0.388s-0.075-0.161-0.218-0.439 c-0.07-0.141-0.161-0.307-0.276-0.492c-0.111-0.189-0.237-0.402-0.403-0.616c-0.151-0.225-0.344-0.448-0.551-0.683 c-0.218-0.225-0.45-0.463-0.728-0.67c-0.271-0.213-0.576-0.409-0.907-0.568c-0.335-0.151-0.692-0.28-1.064-0.342 c-0.371-0.071-0.752-0.072-1.119-0.04c-0.37,0.026-0.72,0.132-1.049,0.238c-0.655,0.233-1.203,0.576-1.629,0.911 c-0.431,0.332-0.734,0.668-0.945,0.898C111.804,39.29,111.707,39.439,111.707,39.439z"/> </g> </g> <circle style="fill:#F18424;" cx="46.435" cy="67.837" r="7.644"/> <circle style="fill:#F18424;" cx="149.219" cy="68.342" r="7.645"/> <g style="opacity:0.25;"> <path style="fill:#5F6151;" d="M96.57,127.026c27.182,0,50.686-11.022,61.966-27.044c-11.279-18.744-34.784-31.641-61.966-31.641 c-27.182,0-50.687,12.896-61.966,31.641C45.883,116.004,69.388,127.026,96.57,127.026z"/> </g> <g style="opacity:0.43;"> <path style="fill:#FFFFFF;" d="M80.149,91.238c0,2.587-2.491,4.684-2.491,4.684s-2.491-2.097-2.491-4.684 c0-2.586,1.115-4.683,2.491-4.683C79.034,86.556,80.149,88.652,80.149,91.238z"/> <path style="fill:#FFFFFF;" d="M119.844,91.238c0,2.587-2.491,4.684-2.491,4.684s-2.491-2.097-2.491-4.684 c0-2.586,1.115-4.683,2.491-4.683C118.729,86.556,119.844,88.652,119.844,91.238z"/> </g> <path style="fill:#EAE7DC;" d="M114.037,9.972c-1.027,0-1.998,0.207-2.923,0.514C108.571,4.332,102.517,0,95.446,0 c-7.912,0-14.538,5.428-16.408,12.758c-0.407-0.091-0.827-0.146-1.262-0.146c-3.202,0-5.797,2.596-5.797,5.797 c0,3.202,2.595,5.798,5.797,5.798c0.766,0,1.491-0.156,2.159-0.425c2.628,5.959,8.579,10.125,15.511,10.125 c5.536,0,10.437-2.666,13.531-6.771c1.46,0.945,3.191,1.508,5.06,1.508c5.156,0,9.336-4.18,9.336-9.336 C123.373,14.151,119.193,9.972,114.037,9.972z"/> <g> <path style="fill:#5F6151;" d="M53.252,91.238c0,0,0.203,0.397,0.584,1.143c0.19,0.372,0.426,0.831,0.701,1.371 c0.273,0.542,0.585,1.166,1.003,1.822c0.401,0.666,0.845,1.403,1.327,2.206c0.5,0.791,1.119,1.598,1.735,2.485 c0.595,0.904,1.375,1.758,2.141,2.695c0.744,0.957,1.65,1.854,2.565,2.816c0.229,0.24,0.461,0.482,0.694,0.727 c0.243,0.235,0.505,0.457,0.76,0.689c0.514,0.461,1.036,0.931,1.568,1.408c0.518,0.494,1.13,0.896,1.703,1.358 c0.593,0.438,1.159,0.933,1.797,1.345c1.274,0.825,2.544,1.732,3.961,2.464c0.348,0.193,0.697,0.388,1.048,0.584l0.526,0.297 l0.548,0.263c0.733,0.35,1.474,0.702,2.22,1.058c3.038,1.295,6.28,2.411,9.682,3.116c3.4,0.687,6.917,1.055,10.44,1.072 c3.522-0.021,7.039-0.386,10.439-1.074c3.4-0.704,6.644-1.82,9.682-3.115c0.746-0.355,1.486-0.708,2.219-1.058l0.548-0.262 l0.526-0.299c0.351-0.196,0.7-0.391,1.047-0.585c1.418-0.731,2.688-1.638,3.962-2.463c0.638-0.412,1.204-0.905,1.797-1.344 c0.573-0.463,1.186-0.865,1.703-1.358c0.532-0.478,1.055-0.947,1.568-1.408c0.255-0.232,0.517-0.454,0.76-0.689 c0.233-0.245,0.466-0.487,0.695-0.727c0.914-0.962,1.821-1.858,2.564-2.816c0.766-0.938,1.545-1.79,2.141-2.695 c0.616-0.888,1.235-1.693,1.735-2.485c0.484-0.804,0.928-1.542,1.329-2.208c0.42-0.658,0.729-1.28,1.002-1.821 c0.276-0.539,0.511-0.997,0.701-1.369c0.381-0.745,0.584-1.143,0.584-1.143s-0.181,0.408-0.521,1.172 c-0.17,0.383-0.38,0.854-0.626,1.408c-0.124,0.278-0.257,0.576-0.398,0.895c-0.145,0.317-0.339,0.633-0.521,0.979 c-0.377,0.687-0.793,1.446-1.246,2.274c-0.471,0.817-1.061,1.653-1.648,2.575c-0.564,0.938-1.314,1.83-2.052,2.811 c-0.716,1.002-1.621,1.925-2.522,2.927c-0.228,0.249-0.457,0.501-0.689,0.755c-0.241,0.245-0.5,0.477-0.753,0.72 c-0.511,0.481-1.031,0.973-1.56,1.472c-0.516,0.515-1.126,0.939-1.699,1.425c-0.592,0.462-1.158,0.979-1.798,1.416 c-1.276,0.873-2.553,1.831-3.981,2.614c-0.708,0.399-1.39,0.869-2.149,1.207c-0.747,0.363-1.501,0.73-2.262,1.1 c-3.098,1.353-6.409,2.521-9.886,3.271c-3.478,0.732-7.078,1.141-10.691,1.185c-3.614-0.047-7.215-0.453-10.691-1.186 c-3.478-0.751-6.789-1.919-9.886-3.271c-0.761-0.369-1.515-0.736-2.262-1.1c-0.76-0.338-1.44-0.81-2.149-1.208 c-1.428-0.783-2.704-1.741-3.981-2.614c-0.639-0.437-1.205-0.953-1.798-1.415c-0.572-0.486-1.183-0.91-1.698-1.426 c-0.529-0.499-1.05-0.989-1.56-1.471c-0.253-0.242-0.513-0.475-0.754-0.72c-0.231-0.254-0.461-0.506-0.687-0.755 c-0.901-1.002-1.808-1.925-2.523-2.927c-0.737-0.98-1.487-1.872-2.053-2.811c-0.587-0.922-1.176-1.757-1.647-2.575 c-0.454-0.828-0.871-1.59-1.248-2.277c-0.183-0.346-0.377-0.662-0.521-0.978c-0.141-0.318-0.273-0.615-0.397-0.893 c-0.246-0.554-0.456-1.025-0.626-1.407C53.433,91.646,53.252,91.238,53.252,91.238z"/> <path style="fill:#5F6151;" d="M119.195,120.229c-0.494,0.217-0.992,0.433-1.492,0.651c-2.964,1.152-6.109,2.141-9.391,2.773 c-3.282,0.61-6.667,0.935-10.057,0.952c-3.391-0.015-6.775-0.341-10.058-0.951c-3.281-0.633-6.427-1.621-9.391-2.773 c-0.384-0.168-0.768-0.334-1.15-0.5c0.346,0.505,7.022,3.786,10.307,4.448c3.354,0.653,6.816,1.017,10.291,1.061 c3.474-0.041,6.937-0.406,10.29-1.06C111.897,124.154,118.93,120.711,119.195,120.229z"/> <path style="fill:#5F6151;" d="M60.424,89.925c0,0-0.223-0.011-0.595,0.003c-0.188,0.014-0.411,0.024-0.666,0.054 c-0.254,0.019-0.537,0.081-0.842,0.12c-0.303,0.074-0.63,0.127-0.967,0.229c-0.34,0.081-0.685,0.217-1.044,0.335 c-0.358,0.12-0.709,0.303-1.075,0.453c-0.348,0.198-0.727,0.34-1.066,0.566c-0.346,0.213-0.707,0.398-1.031,0.641 c-0.322,0.241-0.68,0.425-0.972,0.682c-0.298,0.248-0.612,0.458-0.892,0.684c-0.267,0.239-0.531,0.455-0.779,0.655 c-0.502,0.392-0.872,0.777-1.175,1.011c-0.293,0.243-0.472,0.377-0.472,0.377s0.092-0.198,0.272-0.536 c0.091-0.168,0.2-0.374,0.338-0.603c0.131-0.234,0.287-0.493,0.494-0.748c0.196-0.265,0.412-0.552,0.653-0.844 c0.248-0.285,0.532-0.571,0.83-0.86c0.289-0.301,0.636-0.563,0.981-0.834c0.335-0.286,0.734-0.5,1.114-0.739 c0.38-0.241,0.808-0.403,1.208-0.593c0.417-0.155,0.835-0.294,1.247-0.393c0.412-0.103,0.816-0.17,1.206-0.195 c0.383-0.056,0.755-0.025,1.089-0.021c0.675,0.047,1.221,0.183,1.587,0.309C60.236,89.811,60.424,89.925,60.424,89.925z"/> <path style="fill:#5F6151;" d="M135.885,89.925c0,0,0.189-0.114,0.556-0.249c0.366-0.126,0.912-0.262,1.587-0.309 c0.334-0.004,0.706-0.034,1.089,0.021c0.389,0.025,0.793,0.093,1.206,0.195c0.412,0.099,0.829,0.237,1.247,0.393 c0.399,0.189,0.828,0.352,1.207,0.593c0.38,0.239,0.78,0.453,1.115,0.739c0.346,0.271,0.692,0.533,0.981,0.834 c0.299,0.289,0.582,0.575,0.831,0.86c0.241,0.292,0.457,0.579,0.652,0.844c0.207,0.255,0.364,0.514,0.495,0.748 c0.138,0.229,0.246,0.436,0.338,0.603c0.18,0.338,0.271,0.536,0.271,0.536s-0.179-0.134-0.471-0.377 c-0.303-0.233-0.673-0.618-1.176-1.011c-0.247-0.2-0.512-0.416-0.778-0.655c-0.279-0.226-0.595-0.436-0.892-0.684 c-0.292-0.257-0.649-0.44-0.973-0.682c-0.323-0.242-0.684-0.428-1.031-0.641c-0.34-0.227-0.719-0.368-1.065-0.566 c-0.366-0.15-0.717-0.333-1.076-0.453c-0.359-0.118-0.703-0.254-1.044-0.335c-0.337-0.103-0.663-0.155-0.966-0.229 c-0.305-0.039-0.589-0.102-0.842-0.12c-0.255-0.03-0.479-0.04-0.666-0.054C136.107,89.914,135.885,89.925,135.885,89.925z"/> </g> </g> </g>
</svg>